<?xml version="1.0" encoding="UTF-8" standalone="no"?>
<!-- Generator: Adobe Illustrator 16.0.3, SVG Export Plug-In . SVG Version: 6.00 Build 0)  -->

<svg
   version="1.1"
   id="Capa_1"
   x="0px"
   y="0px"
   width="755.57257"
   height="1080"
   viewBox="0 0 755.57253 1080"
   enable-background="new 0 0 595.28 841.89"
   xml:space="preserve"
   sodipodi:docname="Logo Gob Nuevo León 2.svg"
   inkscape:version="1.1 (c68e22c387, 2021-05-23)"
   xmlns:inkscape="http://www.inkscape.org/namespaces/inkscape"
   xmlns:sodipodi="http://sodipodi.sourceforge.net/DTD/sodipodi-0.dtd"
   xmlns="http://www.w3.org/2000/svg"
   xmlns:svg="http://www.w3.org/2000/svg"><defs
   id="defs27" /><sodipodi:namedview
   id="namedview25"
   pagecolor="#ffffff"
   bordercolor="#666666"
   borderopacity="1.0"
   inkscape:pageshadow="2"
   inkscape:pageopacity="0.0"
   inkscape:pagecheckerboard="0"
   showgrid="false"
   fit-margin-top="0"
   fit-margin-left="0"
   fit-margin-right="0"
   fit-margin-bottom="0"
   inkscape:zoom="0.18015941"
   inkscape:cx="-1079.5995"
   inkscape:cy="-147.09196"
   inkscape:window-width="1920"
   inkscape:window-height="1017"
   inkscape:window-x="-8"
   inkscape:window-y="394"
   inkscape:window-maximized="1"
   inkscape:current-layer="Capa_1" />
<g
   id="g22"
   transform="matrix(0.78175499,0,0,0.78175499,144.00005,210.6359)">
	<g
   id="g20">
		
		<path
   fill-rule="evenodd"
   clip-rule="evenodd"
   fill="#024850"
   d="m 294.658,17.065 c 157.487,0 314.974,0.011 472.461,-0.065 3.902,-0.002 5.785,0.284 5.782,5.188 -0.148,276.144 -0.192,552.286 -0.064,828.43 0.013,28.046 -4.839,54.702 -19.267,79.027 -21.486,36.228 -53.232,58.211 -94.24,67.303 -60.127,13.331 -120.375,26.164 -180.26,40.511 -53.15,12.733 -103.531,33.398 -152.3,57.955 -9.657,4.862 -19.132,10.106 -28.528,15.458 -3.015,1.717 -5.212,1.51 -8.164,-0.147 -59.67,-33.514 -122.42,-59.531 -189.064,-75.376 -49.701,-11.816 -99.728,-22.261 -149.567,-33.499 -15.244,-3.438 -30.863,-5.581 -45.564,-11.03 -50.882,-18.862 -80.546,-55.241 -88.885,-108.92 -0.872,-5.611 -1.103,-11.26 -1.103,-16.937 0.016,-280.977 0.023,-561.953 -0.096,-842.93 -0.002,-4.442 1.499,-5.033 5.399,-5.031 157.82,0.093 315.641,0.079 473.46,0.079 0,-0.005 0,-0.011 0,-0.016 z"
   id="path4" />
		<path
   fill-rule="evenodd"
   clip-rule="evenodd"
   fill="#b4864c"
   d="m 561.744,-39.989 c -64.662,0 -129.324,0.022 -193.986,-0.02 -12.26,-0.009 -19.88,-5.281 -23.879,-16.011 -0.899,-2.414 -0.986,-4.883 -0.986,-7.377 -0.014,-61.496 -0.031,-122.992 0.001,-184.488 0.005,-9.082 4.28,-15.386 12.663,-19.101 8.086,-3.582 15.066,-2.176 21.709,3.458 27.161,23.034 54.446,45.923 81.591,68.977 2.916,2.477 4.643,1.049 6.794,-0.774 19.801,-16.786 39.634,-33.534 59.452,-50.301 7.241,-6.126 14.425,-12.321 21.712,-18.393 8.753,-7.293 21.76,-7.271 30.278,0.332 26.209,23.39 52.321,46.888 78.427,70.394 5.641,5.079 5.45,5.058 11.129,0.047 26.827,-23.673 53.647,-47.354 80.631,-70.849 6.842,-5.958 14.75,-6.186 22.911,-2.41 7.993,3.698 11.781,10.142 11.837,18.648 0.15,23.164 0.057,46.33 0.056,69.495 -10e-4,37.164 -0.474,74.337 0.218,111.488 0.282,15.158 -10.965,27.143 -27.07,27.052 -64.493,-0.361 -128.99,-0.148 -193.486,-0.148 -0.002,-0.006 -0.002,-0.012 -0.002,-0.019 z"
   id="path6" />
		<path
   fill-rule="evenodd"
   clip-rule="evenodd"
   fill="#024850"
   d="m -113.176,-178.458 c -1.291,1.96 -0.776,3.476 -0.777,4.889 -0.025,42.823 -0.073,85.646 0.089,128.47 0.016,4.106 -0.946,5.33 -5.168,5.254 -14.991,-0.269 -29.993,-0.255 -44.986,-0.008 -4.351,0.071 -5.863,-0.825 -5.849,-5.608 0.181,-62.318 0.047,-124.638 0.238,-186.955 0.02,-6.258 -1.171,-11.72 -4.54,-16.91 -1.988,-3.063 -3.621,-6.366 -5.284,-9.628 -2.428,-4.762 -1.181,-6.824 4.166,-6.838 14.996,-0.036 30.031,0.646 44.976,-0.236 9.966,-0.588 16.237,2.743 22.581,10.44 34.408,41.751 69.445,82.984 104.293,124.374 1.138,1.351 1.983,3.052 4.243,4.002 0.085,-1.939 0.227,-3.674 0.227,-5.408 0.004,-34.658 -0.079,-69.317 0.08,-103.975 0.019,-4.008 -1.767,-6.985 -3.464,-10.179 -2.266,-4.261 -4.682,-8.441 -6.879,-12.735 -2.027,-3.961 -0.828,-6.233 3.515,-6.254 19.829,-0.093 39.658,0.005 59.486,-0.083 2.409,-0.011 2.777,1.103 2.743,3.021 -0.052,2.832 -0.028,5.665 -0.028,8.497 -0.003,69.651 -0.042,139.302 0.089,208.952 0.008,4.234 -0.793,5.667 -5.376,5.56 -14.488,-0.34 -28.991,-0.222 -43.486,-0.049 -3.16,0.037 -5.126,-1.004 -7.126,-3.394 -36.878,-44.039 -73.847,-88.003 -110.804,-131.976 -0.843,-1.003 -1.77,-1.932 -2.959,-3.223 z"
   id="path8" />
		<path
   fill-rule="evenodd"
   clip-rule="evenodd"
   fill="#024850"
   d="m 123.545,-141.141 c 0,-31.498 -0.021,-62.995 0.035,-94.492 0.006,-2.92 -0.556,-5.516 -1.97,-8.1 -2.794,-5.107 -5.39,-10.326 -7.953,-15.555 -2.063,-4.208 -0.787,-6.48 3.813,-6.495 20.331,-0.068 40.664,0.08 60.994,-0.102 3.722,-0.033 3.475,1.88 3.469,4.345 -0.037,15.332 -0.019,30.664 -0.019,45.996 0.001,39.164 0.067,78.327 -0.098,117.49 -0.018,4.139 1.004,5.246 5.189,5.228 38.83,-0.167 77.66,-0.017 116.49,-0.201 4.436,-0.021 5.575,1.097 5.479,5.521 -0.309,14.158 -0.185,28.329 -0.049,42.493 0.03,3.14 -0.668,4.302 -4.14,4.295 -59.161,-0.108 -118.323,-0.108 -177.484,0.027 -3.761,0.009 -3.832,-1.631 -3.826,-4.458 0.065,-31.998 0.042,-63.995 0.042,-95.992 0.01,0 0.019,0 0.028,0 z"
   id="path10" />
		<path
   fill-rule="evenodd"
   clip-rule="evenodd"
   fill="#fefefe"
   d="m 128.979,593.944 c -17.065,0 -32.545,-0.121 -48.021,0.04 -11.466,0.12 -21.087,-3.743 -29.11,-11.96 -9.192,-9.414 -18.555,-18.661 -27.86,-27.964 -6.554,-6.553 -10.171,-14.5 -10.202,-23.705 -0.136,-40.326 -0.169,-80.654 -0.015,-120.98 0.051,-13.33 8.537,-24.7 20.942,-29.527 34.113,-13.273 68.186,-26.653 102.316,-39.884 3.437,-1.332 3.858,-2.407 0.944,-4.837 -9.587,-7.991 -15.922,-18.729 -23.565,-28.354 -3.288,-4.141 -3.516,-8.869 -1.026,-13.609 2.433,-4.631 6.433,-6.46 11.51,-6.457 77.986,0.045 155.986,-0.793 233.957,0.361 74.03,1.097 140.358,54.927 159.099,126.593 4.025,15.392 6.051,31.008 6.026,46.919 -0.092,60.321 -0.112,120.643 -0.196,180.965 -0.038,27.156 -0.216,54.313 -0.188,81.468 0.004,3.319 -0.972,5.425 -3.68,7.499 -68.737,52.646 -137.396,105.394 -206.062,158.135 -6.333,4.865 -6.286,4.87 -13.017,0.596 C 245.46,854.074 189.97,819.093 134.746,783.695 100.071,761.469 82.394,729.406 81.39,688.149 c -0.54,-22.154 5.201,-42.592 17.214,-61.041 7.358,-11.301 16.259,-21.49 26.857,-30.029 0.857,-0.691 1.647,-1.463 3.518,-3.135 z"
   id="path12" />
		<path
   fill-rule="evenodd"
   clip-rule="evenodd"
   fill="#fefefe"
   d="m 302.406,258.896 c -31.327,0.005 -62.653,0.013 -93.979,0 -9.597,-0.003 -13.609,-4.041 -13.613,-13.694 -0.009,-24.995 0.064,-49.989 -0.037,-74.983 -0.021,-5.104 1.201,-9.153 6.193,-11.43 4.896,-2.231 8.479,-0.172 12.149,2.984 12.248,10.529 24.722,20.797 36.948,31.35 2.401,2.073 3.868,2.08 6.227,0.053 12.37,-10.632 24.889,-21.091 37.329,-31.642 6.339,-5.377 11.428,-5.392 17.668,0.193 12.034,10.771 24.114,21.493 35.977,32.45 2.871,2.651 4.624,2.998 7.711,0.195 12.202,-11.081 24.73,-21.803 37.03,-32.777 3.668,-3.272 7.448,-4.902 12.25,-2.848 5.042,2.158 6.454,6.364 6.456,11.352 0.012,25.161 0.04,50.322 -0.015,75.483 -0.019,8.578 -4.782,13.29 -13.315,13.298 -31.659,0.028 -63.32,0.011 -94.979,0.016 z"
   id="path14" />
		<path
   fill-rule="evenodd"
   clip-rule="evenodd"
   fill="#024850"
   d="m 235.962,349.959 c 1.812,-1.241 3.521,-0.711 5.114,-0.712 37.657,-0.033 75.313,-0.033 112.971,-0.021 55.279,0.018 103.858,46.027 107.029,101.303 0.448,7.826 0.164,15.644 0.146,23.468 -0.163,72.979 -0.256,145.959 -0.272,218.938 -10e-4,2.794 -0.766,4.589 -2.987,6.292 -50.337,38.598 -100.641,77.237 -150.864,115.981 -2.424,1.87 -3.983,1.354 -6.117,-0.007 -36.794,-23.436 -73.584,-46.878 -110.45,-70.197 -6.322,-3.999 -13.017,-7.406 -19.5,-11.154 -32.686,-18.892 -36.823,-61.165 -8.416,-86.032 38.332,-33.556 76.616,-67.167 115.061,-100.594 12.365,-10.751 18.478,-23.887 18.277,-40.333 -0.282,-23.157 -0.168,-46.321 -0.023,-69.481 0.088,-14.204 -4.706,-26.219 -14.388,-36.644 -14.615,-15.738 -28.888,-31.795 -43.287,-47.734 -0.84,-0.929 -1.509,-2.011 -2.294,-3.073 z"
   id="path16" />
		<path
   fill-rule="evenodd"
   clip-rule="evenodd"
   fill="#024850"
   d="m 144.988,531.805 c -16.987,0.001 -33.976,-0.088 -50.961,0.078 -3.296,0.032 -5.281,-1.372 -7.782,-3.279 -8.497,-6.478 -10.652,-14.612 -10.286,-25.088 0.797,-22.789 0.32,-45.625 0.168,-68.44 -0.021,-3.199 0.991,-4.674 3.921,-5.807 34.122,-13.187 68.209,-26.466 102.262,-39.83 2.565,-1.007 4.119,-0.791 6.003,1.313 14.213,15.868 28.535,31.637 42.867,47.397 1.438,1.581 2.014,3.233 2.006,5.378 -0.067,18.819 -0.082,37.639 0.021,56.457 0.013,2.417 -0.762,3.992 -2.552,5.531 -8.959,7.701 -17.856,15.476 -26.687,23.323 -2.354,2.092 -4.749,3.082 -8.02,3.048 -16.984,-0.176 -33.972,-0.082 -50.96,-0.081 z"
   id="path18" />
	</g>
</g>
</svg>
